<svg id="Layer_1" data-name="Layer 1" xmlns="http://www.w3.org/2000/svg" viewBox="0 0 141.73 141.73"><defs><style>.cls-1{fill:#010101;}</style></defs><title>instagram</title><path class="cls-1" d="M84.76,71.07A13.57,13.57,0,1,1,71.19,57.51,13.57,13.57,0,0,1,84.76,71.07Z" transform="translate(-0.33 -0.2)"/><path class="cls-1" d="M102.91,47.07a13.43,13.43,0,0,0-7.72-7.72A22.4,22.4,0,0,0,87.64,38c-4.3-.2-5.58-.24-16.45-.24S59,37.75,54.75,38a22.48,22.48,0,0,0-7.56,1.4,13.43,13.43,0,0,0-7.72,7.72,22.48,22.48,0,0,0-1.4,7.56c-.2,4.29-.24,5.58-.24,16.44s0,12.15.24,16.45a22.4,22.4,0,0,0,1.4,7.55,13.43,13.43,0,0,0,7.72,7.72,22.67,22.67,0,0,0,7.56,1.41c4.29.19,5.57.23,16.44.23s12.15,0,16.44-.23a22.61,22.61,0,0,0,7.56-1.41,13.47,13.47,0,0,0,7.72-7.72,22.4,22.4,0,0,0,1.4-7.55c.2-4.3.24-5.58.24-16.45s0-12.15-.24-16.44A22.48,22.48,0,0,0,102.91,47.07ZM71.19,92a20.9,20.9,0,1,1,20.9-20.9A20.9,20.9,0,0,1,71.19,92ZM92.91,54.23a4.88,4.88,0,1,1,4.89-4.88A4.88,4.88,0,0,1,92.91,54.23Z" transform="translate(-0.33 -0.2)"/><path class="cls-1" d="M71.19.2a70.87,70.87,0,1,0,70.87,70.87A70.87,70.87,0,0,0,71.19.2Zm40.45,87.65a30.12,30.12,0,0,1-1.89,9.88,20.87,20.87,0,0,1-11.9,11.9A30.12,30.12,0,0,1,88,111.52c-4.34.2-5.73.24-16.78.24s-12.43,0-16.78-.24a30.05,30.05,0,0,1-9.87-1.89,20.83,20.83,0,0,1-11.9-11.9,29.6,29.6,0,0,1-1.89-9.88c-.2-4.34-.25-5.73-.25-16.78s.05-12.44.24-16.78a30,30,0,0,1,1.89-9.87A20.87,20.87,0,0,1,44.54,32.51a30.05,30.05,0,0,1,9.87-1.89c4.34-.19,5.73-.24,16.78-.24s12.44.05,16.78.24a30.12,30.12,0,0,1,9.88,1.89,20.89,20.89,0,0,1,11.9,11.91,30,30,0,0,1,1.89,9.87c.2,4.34.24,5.73.24,16.78S111.84,83.51,111.64,87.85Z" transform="translate(-0.33 -0.2)"/></svg>