<svg id="Layer_1" data-name="Layer 1" xmlns="http://www.w3.org/2000/svg" viewBox="0 0 141.73 141.73"><defs><style>.cls-1{fill:#010101;}</style></defs><title>spotify</title><path class="cls-1" d="M71.19,141.94A70.87,70.87,0,1,0,.33,71.07,70.9,70.9,0,0,0,71.19,141.94ZM100,104.47h0c-4.76,0-19.82-16.7-62.12-8a18.32,18.32,0,0,1-3.4.74c-5.41,0-6.44-8.08-.63-9.32,23.4-5.17,47.32-4.71,67.72,7.49,4.86,3.11,2.8,9.11-1.57,9.11Zm7.7-18.74c-.67-.17-.47.41-3.53-1.19C86.27,74,59.65,69.7,36,76.13a11.79,11.79,0,0,1-3.4.75c-6.32,0-8-9.52-1.11-11.46,27.85-7.83,57.73-3.26,78.53,9.11a6,6,0,0,1,3.23,5.63A5.54,5.54,0,0,1,107.66,85.73ZM27.18,41.53c26.71-7.82,67.14-5.35,92.27,9.32,6.44,3.71,3.91,13.11-2.94,13.11h0a6.63,6.63,0,0,1-3.69-1.11C92.48,50.7,56.1,47.79,32.56,54.36a13.93,13.93,0,0,1-3.69.74,6.6,6.6,0,0,1-6.66-6.75,6.75,6.75,0,0,1,5-6.82Z" transform="translate(-0.33 -0.2)"/></svg>