<svg id="Layer_1" data-name="Layer 1" xmlns="http://www.w3.org/2000/svg" viewBox="0 0 141.73 141.73"><defs><style>.cls-1{fill:#010101;}</style></defs><title>soundcloud</title><path class="cls-1" d="M71.19.2a70.87,70.87,0,1,0,70.87,70.87A70.86,70.86,0,0,0,71.19.2Zm-44.92,90a3.21,3.21,0,0,1-6.42,0V70.92a3.21,3.21,0,0,1,6.42,0Zm12.83,0a3.21,3.21,0,0,1-6.42,0V58.08a3.21,3.21,0,0,1,6.42,0Zm12.84,0a3.21,3.21,0,0,1-6.42,0V58.08a3.21,3.21,0,0,1,6.42,0Zm12.83,0a3.21,3.21,0,1,1-6.41,0V45.25a3.21,3.21,0,1,1,6.41,0Zm41.72,3.21H74.4a3.21,3.21,0,0,1-3.21-3.21V38.83a3.21,3.21,0,0,1,3.21-3.21,28.93,28.93,0,0,1,28.74,26,16,16,0,1,1,3.35,31.74Z" transform="translate(-0.33 -0.2)"/></svg>